<svg width="69" height="70" viewBox="0 0 69 70" fill="none" xmlns="http://www.w3.org/2000/svg">
<path d="M36.2727 38.0204C36.1561 38.0892 36.0319 38.1413 35.9007 38.1769C35.7695 38.2124 35.6359 38.2304 35.5 38.2304C35.3641 38.2304 35.2305 38.2124 35.0993 38.1769C34.9681 38.1413 34.8439 38.0892 34.7273 38.0204L16 27V47.0578C16 47.1543 16.0047 47.2503 16.0146 47.3463C16.024 47.4419 16.0386 47.5374 16.0578 47.6316C16.0767 47.7262 16.1006 47.8195 16.1293 47.9118C16.1576 48.0041 16.1909 48.0946 16.2286 48.1837C16.2662 48.2727 16.308 48.36 16.3541 48.4449C16.4007 48.5298 16.451 48.6125 16.5056 48.6923C16.5601 48.7726 16.6189 48.8497 16.681 48.9245C16.7435 48.9988 16.8094 49.0704 16.8785 49.1382C16.9481 49.2065 17.021 49.2712 17.0967 49.3321C17.1729 49.3935 17.2515 49.4507 17.3333 49.5043C17.4151 49.5578 17.4993 49.6072 17.5858 49.6529C17.6724 49.6981 17.7613 49.7392 17.852 49.7761C17.9428 49.8131 18.035 49.8454 18.129 49.8735C18.2231 49.9012 18.3186 49.9248 18.415 49.9437C18.5109 49.9626 18.6083 49.9765 18.7061 49.9862C18.8039 49.9954 18.9017 50 19 50H52C52.0983 50 52.1961 49.9954 52.2939 49.9862C52.3917 49.9765 52.4891 49.9621 52.585 49.9437C52.6814 49.9248 52.7769 49.9012 52.871 49.8735C52.965 49.8454 53.0572 49.8131 53.148 49.7761C53.2387 49.7392 53.3276 49.6981 53.4142 49.6529C53.5007 49.6072 53.5849 49.5578 53.6667 49.5043C53.7485 49.4507 53.8271 49.3935 53.9033 49.3321C53.979 49.2712 54.0519 49.2065 54.121 49.1382C54.1906 49.0704 54.2565 48.9988 54.319 48.9245C54.3811 48.8497 54.4399 48.7726 54.4944 48.6923C54.549 48.6125 54.5993 48.5298 54.6459 48.4449C54.692 48.36 54.7338 48.2727 54.7714 48.1837C54.8091 48.0946 54.8424 48.0041 54.8707 47.9118C54.8994 47.8195 54.9233 47.7262 54.9422 47.6316C54.9614 47.5374 54.976 47.4419 54.9854 47.3463C54.9953 47.2503 55 47.1543 55 47.0578V27L36.2727 38.0204Z" fill="#5C2A06"/>
<path d="M35.5 35L55 23.1026V23.0509C55 22.9509 54.9953 22.8514 54.9854 22.7518C54.976 22.6523 54.9614 22.5537 54.9422 22.4556C54.9233 22.3575 54.8994 22.2608 54.8707 22.1651C54.8424 22.0694 54.8091 21.9756 54.7714 21.8832C54.7338 21.7908 54.692 21.7009 54.6459 21.6128C54.5993 21.5247 54.549 21.4391 54.4944 21.3558C54.4399 21.273 54.3811 21.1926 54.319 21.1156C54.2565 21.038 54.1906 20.9643 54.121 20.8935C54.0519 20.8232 53.979 20.7561 53.9033 20.6925C53.8271 20.6293 53.7485 20.57 53.6667 20.5145C53.5849 20.459 53.5007 20.4073 53.4142 20.3604C53.3276 20.3135 53.2387 20.2704 53.148 20.2321C53.0572 20.1943 52.965 20.1603 52.871 20.1316C52.7769 20.1024 52.6814 20.078 52.585 20.0589C52.4891 20.0392 52.3917 20.0244 52.2939 20.0148C52.1961 20.0048 52.0983 20 52 20H19C18.9017 20 18.8039 20.0048 18.7061 20.0148C18.6083 20.0244 18.5109 20.0392 18.415 20.0589C18.3186 20.078 18.2231 20.1024 18.129 20.1316C18.035 20.1603 17.9428 20.1943 17.852 20.2321C17.7613 20.2704 17.6724 20.3135 17.5858 20.3604C17.4993 20.4073 17.4151 20.459 17.3333 20.5145C17.2515 20.57 17.1729 20.6293 17.0967 20.6925C17.021 20.7561 16.9481 20.8232 16.8785 20.8935C16.8094 20.9643 16.7435 21.038 16.681 21.1156C16.6189 21.1926 16.5601 21.273 16.5056 21.3558C16.451 21.4391 16.4007 21.5247 16.3541 21.6128C16.308 21.7009 16.2662 21.7908 16.2286 21.8832C16.1909 21.9756 16.1576 22.0694 16.1293 22.1651C16.1006 22.2608 16.0767 22.3575 16.0578 22.4556C16.0386 22.5537 16.024 22.6523 16.0146 22.7518C16.0047 22.8514 16 22.9509 16 23.0509V23.1026L35.5 35Z" fill="#5C2A06"/>
<path d="M34.5 70C15.525 70 0 54.25 0 35C0 15.75 15.525 0 34.5 0C53.475 0 69 15.75 69 35C69 54.25 53.475 70 34.5 70ZM34.5 3.5C17.4225 3.5 3.45 17.675 3.45 35C3.45 52.325 17.4225 66.5 34.5 66.5C51.5775 66.5 65.55 52.325 65.55 35C65.55 17.675 51.5775 3.5 34.5 3.5Z" fill="white"/>
</svg>
