<svg width="69" height="69" viewBox="0 0 69 69" fill="none" xmlns="http://www.w3.org/2000/svg">
<path d="M34.4796 0C15.4677 0 0 15.4766 0 34.5C0 53.5239 15.4677 69 34.4796 69C53.492 69 68.9603 53.5239 68.9603 34.5C68.9597 15.4766 53.4914 0 34.4796 0ZM34.4796 65.5973C17.3427 65.5973 3.40074 51.6473 3.40074 34.5C3.40074 17.3532 17.3427 3.4027 34.4796 3.4027C51.6165 3.4027 65.5595 17.3532 65.5595 34.5C65.5589 51.6473 51.6165 65.5973 34.4796 65.5973Z" fill="white"/>
<path d="M45.1072 14.2562H37.6279C37.6103 14.2562 37.5933 14.2568 37.5768 14.2585C30.0255 14.2823 29.0393 19.5582 29.0353 24.1694C29.0251 24.2125 29.0195 24.2568 29.0195 24.3027V27.5398H23.8515C23.5386 27.5398 23.2847 27.7939 23.2847 28.1069V36.0902C23.2847 36.4038 23.5386 36.6573 23.8515 36.6573H29.0195V54.1762C29.0195 54.4898 29.2734 54.7433 29.5862 54.7433H37.1285C37.4419 54.7433 37.6953 54.4898 37.6953 54.1762V36.6579H45.1067C45.4201 36.6579 45.6734 36.4044 45.6734 36.0908V28.1075C45.6734 27.7944 45.4201 27.5404 45.1067 27.5404H37.1285V23.249H45.1067C45.4201 23.249 45.6734 22.9949 45.6734 22.6819V14.8233C45.674 14.5103 45.4201 14.2562 45.1072 14.2562Z" fill="#5C2A06"/>
</svg>
