<svg width="448" height="448" viewBox="0 0 448 448" fill="none" xmlns="http://www.w3.org/2000/svg">
<path d="M326.934 232.838C326.328 217.326 329.26 170.808 329.26 170.808C330.294 167.011 331.38 162.441 332.151 158.78C355.55 51.8421 283.88 9.1084 224.045 9.1084C208.078 9.1084 188.988 14.916 179.931 26.0504C178.127 28.2794 175.706 29.932 172.842 30.3863C132.499 36.8687 106.003 89.3327 115.581 153.99C116.395 159.481 117.496 165.083 118.831 170.754V170.795C121.404 184.998 122.092 217.341 121.157 232.838C117.33 295.995 48.2471 351.955 93.173 396.424C211.713 424.265 236.971 426.619 354.918 396.424C399.844 351.955 329.412 296.064 326.934 232.838Z" fill="#513134"/>
<path d="M346.329 209.537C346.164 209.275 342.131 203.054 337.313 199.421C335.758 198.238 333.542 198.554 332.372 200.109C331.201 201.665 331.504 203.867 333.06 205.036C336.872 207.914 340.383 213.308 340.507 213.501C345.903 220.987 346.742 228.392 343.025 235.536C336.474 248.101 317.094 258.491 292.083 264.314C293.392 266.391 294.63 268.524 295.8 270.673C321.883 264.231 341.965 252.822 349.274 238.784C354.257 229.231 353.197 219.075 346.329 209.537Z" fill="#402A44"/>
<path d="M259.916 319.833C254.988 325.614 230.461 384.024 224.184 394.386C217.879 384.024 193.214 325.462 188.313 319.696C192.788 315.181 196.31 309.36 198.292 301.404C199.132 297.977 199.668 294.151 199.917 289.843C205.051 291.784 243.081 291.743 248.216 289.802V289.843C248.423 293.959 248.96 297.674 249.771 300.978C251.699 309.263 255.332 315.209 259.916 319.833Z" fill="#FEC2A6"/>
<path d="M249.771 300.978C243.081 305.809 233.914 308.726 223.729 308.726C213.859 308.726 204.913 305.987 198.292 301.404C199.132 297.977 199.668 294.151 199.917 289.843C205.051 291.784 243.081 291.743 248.215 289.802V289.843C248.423 293.959 248.959 297.674 249.771 300.978Z" fill="#FEC2A6"/>
<path d="M354.918 396.424C357.065 405.727 349.81 411.687 339.695 417.179C326.769 424.224 287.292 439.02 224.045 439.02C160.798 439.02 121.321 424.224 108.398 417.179C98.2806 411.687 91.0263 405.727 93.1729 396.424C93.6684 394.166 94.7564 391.744 96.4502 389.033C103.993 377.183 118.541 358.053 155.649 338.33C158.789 336.665 162.064 335.152 165.409 333.678C166.469 347.937 207.487 336.638 207.487 336.638C212.167 338.716 215.305 343.257 215.525 348.405C216.049 360.915 217.879 384.024 224.184 394.386C230.46 384.024 232.291 360.915 232.814 348.405C233.033 343.257 236.172 338.716 240.852 336.638C240.852 336.638 281.842 348.048 282.93 333.789C286.165 335.219 289.371 336.706 292.441 338.33C329.55 358.053 344.098 377.183 351.642 389.033C353.334 391.744 354.422 394.166 354.918 396.424Z" fill="#FE7678"/>
<path d="M313.087 167.974C318.345 167.974 323.453 168.675 327.953 170.3C339.02 174.277 346.701 183.856 344.87 202.71C343.397 218.209 335.744 227.416 326.302 231.324C319.887 234.035 312.592 234.311 305.861 232.522C309.784 218.854 313.693 177.841 313.087 167.974Z" fill="#443252"/>
<path d="M142.189 232.522C135.458 234.311 128.204 234.035 121.791 231.365C112.306 227.416 104.668 218.25 103.153 202.71C101.419 184.572 108.439 175.021 118.831 170.795C123.662 168.785 129.223 167.974 134.963 167.974C134.37 177.841 138.28 218.854 142.189 232.522Z" fill="#443252"/>
<path d="M313.102 167.959C313.665 177.827 309.784 218.841 305.861 232.522C301.843 246.545 284.279 282.989 231.382 294.77C226.551 295.858 221.499 295.858 216.668 294.77C163.785 282.989 146.208 246.545 142.189 232.522C138.267 218.841 134.371 177.827 134.948 167.959C152.127 158.546 144.364 126.326 156.944 96.6959C164.776 78.2807 175.334 73.5184 181.211 72.3628C184.239 71.7703 186.855 70.0089 188.727 67.5873C211.272 38.6155 256.296 54.1681 272.827 84.8322C287.844 112.716 290.088 154.169 313.102 167.959Z" fill="#FEC2A6"/>
<path d="M282.256 324.333C283.026 325.64 283.247 329.165 282.93 333.789C281.842 348.047 275.594 372.325 265.628 369.613C251.286 365.704 240.853 336.638 240.853 336.638C248.148 333.389 254.988 325.614 259.916 319.833C260.548 319.021 261.182 318.277 261.788 317.576C264.224 314.685 267.253 314.41 270.598 316.131C274.754 318.277 280.218 320.988 282.256 324.333Z" fill="#F9F3DD"/>
<path d="M207.487 336.638C207.487 336.638 197.054 365.704 182.711 369.613C172.705 372.325 166.469 347.937 165.409 333.678C165.093 329.137 165.312 325.614 166.084 324.333C168.12 320.988 173.585 318.277 177.742 316.131C181.087 314.41 184.115 314.685 186.552 317.576C187.115 318.236 187.721 318.952 188.313 319.696C193.214 325.462 200.122 333.389 207.487 336.638Z" fill="#F9F3DD"/>
<path d="M209.112 224.278C206.248 224.278 204.101 226.961 204.871 229.7C207.239 238.054 214.919 244.178 224.045 244.178C233.171 244.178 240.852 238.054 243.219 229.7C243.99 226.961 241.843 224.278 238.98 224.278H209.112Z" fill="white"/>
<path d="M178.61 187.172H177.907C172.649 187.172 168.382 182.92 168.382 177.663V170.024C168.382 164.767 172.649 160.5 177.907 160.5H178.61C183.867 160.5 188.134 164.767 188.134 170.024V177.663C188.134 182.92 183.867 187.172 178.61 187.172Z" fill="black"/>
<path d="M269.482 187.172H270.184C275.442 187.172 279.709 182.92 279.709 177.663V170.024C279.709 164.767 275.442 160.5 270.184 160.5H269.482C264.224 160.5 259.957 164.767 259.957 170.024V177.663C259.957 182.92 264.224 187.172 269.482 187.172Z" fill="black"/>
<path d="M224.294 422.67H223.798C220.151 422.67 217.163 419.682 217.163 416.021V415.541C217.163 411.88 220.151 408.892 223.798 408.892H224.294C227.94 408.892 230.928 411.88 230.928 415.541V416.021C230.928 419.682 227.94 422.67 224.294 422.67Z" fill="white"/>
<path d="M224.087 212.758C223.976 212.758 214.355 212.607 214.355 207.087C214.355 205.133 215.938 203.564 217.879 203.564C219.091 203.564 220.151 204.156 220.783 205.077C221.581 205.38 223.152 205.711 224.087 205.711C224.982 205.711 226.51 205.38 227.308 205.092C227.94 204.17 229 203.564 230.212 203.564C232.153 203.564 233.736 205.133 233.736 207.087C233.736 212.607 224.169 212.758 224.087 212.758Z" fill="#E88B72"/>
<path d="M161.073 168.993C160.55 168.993 160.028 168.882 159.518 168.634C157.784 167.766 157.054 165.661 157.908 163.913C160.44 158.793 168.603 153.316 176.764 153.316C182.945 153.316 187.611 155.009 191.892 158.821C193.337 160.115 193.475 162.344 192.182 163.804C190.888 165.262 188.657 165.386 187.199 164.092C185.023 162.151 182.27 160.362 176.764 160.362C171.204 160.362 165.547 164.382 164.239 167.024C163.62 168.276 162.367 168.993 161.073 168.993Z" fill="black"/>
<path d="M154.701 144.824C153.778 144.824 152.856 144.467 152.168 143.751C150.818 142.361 150.846 140.131 152.251 138.768C160.784 130.483 189.346 126.244 197.838 132.011C199.449 133.099 199.861 135.3 198.775 136.911C197.687 138.521 195.484 138.934 193.874 137.846C188.658 134.295 163.592 137.584 157.151 143.833C156.476 144.493 155.582 144.824 154.701 144.824Z" fill="#4B3532"/>
<path d="M287.017 168.993C285.724 168.993 284.471 168.276 283.852 167.024C282.545 164.382 276.887 160.362 271.327 160.362C265.82 160.362 263.068 162.151 260.892 164.092C259.434 165.386 257.205 165.262 255.911 163.804C254.617 162.344 254.754 160.115 256.199 158.821C260.48 155.009 265.146 153.316 271.327 153.316C279.488 153.316 287.651 158.793 290.183 163.913C291.037 165.661 290.308 167.766 288.573 168.634C288.064 168.882 287.541 168.993 287.017 168.993Z" fill="black"/>
<path d="M293.391 144.824C292.509 144.824 291.615 144.493 290.94 143.833C284.499 137.584 259.434 134.295 254.217 137.846C252.607 138.934 250.418 138.508 249.317 136.911C248.23 135.3 248.643 133.099 250.253 132.011C258.745 126.257 287.307 130.483 295.841 138.768C297.245 140.131 297.273 142.361 295.923 143.751C295.235 144.467 294.313 144.824 293.391 144.824Z" fill="#4B3532"/>
<path d="M331.588 161.381C329.688 150.385 324.649 124.152 303.329 81.9005C302.489 80.1391 302.02 78.2674 303.398 76.8912C304.802 75.5562 307.031 75.5974 308.407 76.9736C319.612 88.4932 331.945 117.587 335.18 141.301L331.588 161.381Z" fill="#3D2022"/>
<path d="M141.776 87.5022C141.556 87.8595 120.276 128.722 115.982 156.413C115.83 155.614 115.692 154.788 115.582 153.99C114.632 147.645 114.041 141.412 113.792 135.355C118.9 110.444 134.866 85.3542 135.664 83.978C136.629 82.2857 138.775 81.7211 140.468 82.6709C142.162 83.6619 142.711 85.8085 141.776 87.5022Z" fill="#3D2022"/>
<path d="M326.797 251.046C307.843 262.511 276.654 269.805 243.536 269.351C241.609 269.42 239.998 270.878 239.972 272.833C239.944 274.773 241.499 276.37 243.44 276.398C244.526 276.411 245.601 276.424 246.675 276.424C282.227 276.424 314.766 267.947 334.078 254.694C331.629 253.495 329.206 252.299 326.797 251.046Z" fill="#402A44"/>
<path d="M243.495 272.901C243.495 280.319 235.649 286.321 225.987 286.321C216.324 286.321 208.492 280.319 208.492 272.901C208.492 265.497 216.324 259.482 225.987 259.482C235.649 259.482 243.495 265.497 243.495 272.901Z" fill="#443252"/>
</svg>
