<svg width="81" height="86" viewBox="0 0 81 86" fill="none" xmlns="http://www.w3.org/2000/svg">
<path d="M40.5 85.0991C62.8675 85.0991 81 66.9667 81 44.5991C81 22.2316 62.8675 4.09912 40.5 4.09912C18.1325 4.09912 0 22.2316 0 44.5991C0 66.9667 18.1325 85.0991 40.5 85.0991Z" fill="#FBB03F"/>
<path d="M19.5121 16.0688H12.9534V29.6782L19.5121 23.0375V16.0688Z" fill="#E76F32"/>
<path d="M12.9534 30.4979C12.8714 30.4979 12.7894 30.4979 12.6254 30.416C12.2975 30.334 12.1335 30.006 12.1335 29.6781V16.0688C12.1335 15.6589 12.4615 15.3309 12.8714 15.3309H19.4301C19.84 15.3309 20.168 15.6589 20.168 16.0688V23.0374C20.168 23.2014 20.086 23.4473 19.922 23.6113L13.3633 30.252C13.3633 30.416 13.1174 30.4979 12.9534 30.4979ZM13.6912 16.8066V27.7925L18.6922 22.7095V16.8066H13.6912V16.8066Z" fill="#333C48"/>
<path d="M68.7024 72.5557H12.9534C12.5435 72.5557 12.2156 72.2278 12.2156 71.8178V41.6478C12.2156 41.4838 12.2976 41.2379 12.4615 41.0739L40.1721 12.9535C40.336 12.7895 40.5 12.7075 40.7459 12.7075C40.9919 12.7075 41.1559 12.7895 41.3198 12.9535L69.3583 40.9919C69.5223 41.1559 69.6042 41.3199 69.6042 41.5658L69.6862 71.7359C69.6862 71.8998 69.6042 72.1458 69.4403 72.3097C69.1123 72.4737 68.9484 72.5557 68.7024 72.5557ZM13.6913 70.998H67.9646L67.8826 41.9757L40.582 14.6751L13.6913 41.9757V70.998Z" fill="#333C48"/>
<path opacity="0.79" d="M40.5819 8.85425L12.9534 36.9747V41.6478L40.5819 13.6093L68.7024 41.6478V36.8927L40.5819 8.85425Z" fill="#F9D9AF"/>
<path d="M12.9534 42.4676C12.8714 42.4676 12.7894 42.4676 12.6254 42.3856C12.2975 42.3036 12.1335 41.9757 12.1335 41.6477V36.8927C12.1335 36.7287 12.2155 36.4828 12.3795 36.3188L40.09 8.19834C40.254 8.03438 40.418 7.95239 40.6639 7.95239C40.9099 7.95239 41.0738 8.03438 41.2378 8.19834L69.2763 36.2368C69.4402 36.4008 69.5222 36.5647 69.5222 36.8107V41.5658C69.5222 41.8937 69.3582 42.1396 69.0303 42.3036C68.7844 42.3856 68.4564 42.3856 68.2105 42.1396L40.5819 14.6751L13.4453 42.2216C13.3633 42.3856 13.1174 42.4676 12.9534 42.4676ZM13.6912 37.2206V39.7621L40.09 12.9534C40.254 12.7894 40.418 12.7075 40.6639 12.7075C40.9099 12.7075 41.0738 12.7894 41.2378 12.9534L67.8825 39.7621V37.2206L40.5819 9.92L13.6912 37.2206Z" fill="#333C48"/>
<path d="M49.1084 39.6802H32.6296V65.915H49.1084V39.6802Z" fill="#E76F32"/>
<path d="M49.0262 66.6528H32.6295C32.2195 66.6528 31.8916 66.3249 31.8916 65.9149V39.6801C31.8916 39.2702 32.2195 38.9423 32.6295 38.9423H49.0262C49.4361 38.9423 49.7641 39.2702 49.7641 39.6801V65.9149C49.8461 66.3249 49.4361 66.6528 49.0262 66.6528ZM33.3673 65.1771H48.2884V40.418H33.3673V65.1771Z" fill="#333C48"/>
<path d="M53.1255 68.8665H28.6123V71.8179H53.1255V68.8665Z" fill="#E76F32"/>
<path d="M53.0435 72.5557H28.6124C28.2024 72.5557 27.8745 72.2277 27.8745 71.8178V68.8664C27.8745 68.4565 28.2024 68.1285 28.6124 68.1285H53.1255C53.5354 68.1285 53.8634 68.4565 53.8634 68.8664V71.8178C53.8634 72.2277 53.4535 72.5557 53.0435 72.5557ZM29.3502 70.998H52.3057V69.6042H29.3502V70.998Z" fill="#333C48"/>
<path d="M51.1578 65.915H30.5798V68.8665H51.1578V65.915Z" fill="#E76F32"/>
<path d="M51.0758 69.6043H30.5799C30.17 69.6043 29.842 69.2763 29.842 68.8664V65.915C29.842 65.5051 30.17 65.1771 30.5799 65.1771H51.1578C51.5677 65.1771 51.8957 65.5051 51.8957 65.915V68.8664C51.8957 69.2763 51.5678 69.6043 51.0758 69.6043ZM31.3178 68.1285H50.338V66.6528H31.3178V68.1285Z" fill="#333C48"/>
<path d="M46.2389 52.7976C46.2389 53.0435 45.993 53.2895 45.747 53.2895C45.5011 53.2895 45.2551 53.0435 45.2551 52.7976C45.2551 52.5516 45.5011 52.3057 45.747 52.3057C46.075 52.3057 46.2389 52.5516 46.2389 52.7976Z" fill="#333C48"/>
<path d="M45.7468 54.0273C45.091 54.0273 44.5171 53.4534 44.5171 52.7975C44.5171 52.1416 45.091 51.5677 45.7468 51.5677C46.4027 51.5677 46.9766 52.1416 46.9766 52.7975C46.9766 53.4534 46.4847 54.0273 45.7468 54.0273ZM45.7468 52.4696C45.5829 52.4696 45.4189 52.6335 45.4189 52.7975C45.4189 52.9615 45.5829 53.1254 45.7468 53.1254C45.9108 53.1254 46.0748 52.9615 46.0748 52.7975C46.0748 52.6335 45.9108 52.4696 45.7468 52.4696Z" fill="#333C48"/>
<path d="M40.5819 0.819824L5.00098 36.9747L9.01818 40.9099L40.5819 8.85424L72.6376 40.9099L76.6548 36.8927L40.5819 0.819824Z" fill="#E76F32"/>
<path d="M72.6377 41.6478C72.4737 41.6478 72.2278 41.5658 72.0638 41.4018L40.582 9.92004L9.59213 41.4018C9.2642 41.7298 8.85428 41.7298 8.52634 41.4018L4.50914 37.4666C4.34517 37.3026 4.26318 37.1387 4.26318 36.8927C4.26318 36.7287 4.34517 36.4828 4.50914 36.3188L40.0901 0.245951C40.2541 0.0819832 40.418 0 40.664 0C40.828 0 41.0739 0.0819832 41.2379 0.245951L77.3107 36.3188C77.6387 36.6468 77.6387 37.1387 77.3107 37.3846L73.2935 41.4018C73.0476 41.5658 72.8836 41.6478 72.6377 41.6478ZM40.582 8.1164C40.746 8.1164 40.9919 8.19838 41.1559 8.36235L72.6377 39.8441L75.5071 36.9747L40.582 1.88563L6.14881 36.8927L9.10023 39.7621L40.0901 8.28036C40.1721 8.19838 40.418 8.1164 40.582 8.1164Z" fill="#333C48"/>
</svg>
