<svg width="69" height="69" viewBox="0 0 69 69" fill="none" xmlns="http://www.w3.org/2000/svg">
<path d="M34.4796 0C15.4677 0 0 15.4766 0 34.5C0 53.5234 15.4677 69 34.4796 69C53.492 69 68.9597 53.5234 68.9597 34.5C68.9597 15.4766 53.4914 0 34.4796 0ZM34.4796 65.5973C17.3427 65.5973 3.40074 51.6468 3.40074 34.5C3.40074 17.3532 17.3427 3.4027 34.4796 3.4027C51.6165 3.4027 65.559 17.3532 65.559 34.5C65.559 51.6468 51.6165 65.5973 34.4796 65.5973Z" fill="white"/>
<path d="M45.3692 18.0537H23.7915C20.609 18.0537 18.0193 20.6443 18.0193 23.8292V45.5186C18.0193 48.703 20.6084 51.2941 23.7915 51.2941H45.3686C48.5511 51.2941 51.1408 48.7036 51.1408 45.5186V23.8287C51.1408 20.6443 48.5517 18.0537 45.3692 18.0537ZM39.5715 34.6124C39.5715 37.3663 37.3327 39.6064 34.5803 39.6064C31.828 39.6064 29.5892 37.3663 29.5892 34.6124C29.5892 33.2462 30.1412 32.0076 31.0322 31.1053H38.1279C39.02 32.0076 39.5715 33.2462 39.5715 34.6124ZM41.0185 22.6746H46.0743V27.8858H41.0185V22.6746ZM45.3692 47.8909H23.7915C22.4839 47.8909 21.42 46.8264 21.42 45.5181V31.1053H26.9655C26.4718 32.1744 26.1884 33.3596 26.1884 34.6124C26.1884 39.2429 29.9531 43.0091 34.5803 43.0091C39.2076 43.0091 42.9722 39.2423 42.9722 34.6124C42.9722 33.3596 42.6888 32.1744 42.1952 31.1053H47.7401V45.5181C47.7401 46.8264 46.6762 47.8909 45.3692 47.8909Z" fill="#5C2A06"/>
</svg>
