<svg width="69" height="70" viewBox="0 0 69 70" fill="none" xmlns="http://www.w3.org/2000/svg">
<path d="M34.5 70C15.525 70 0 54.25 0 35C0 15.75 15.525 0 34.5 0C53.475 0 69 15.75 69 35C69 54.25 53.475 70 34.5 70ZM34.5 3.5C17.4225 3.5 3.45 17.675 3.45 35C3.45 52.325 17.4225 66.5 34.5 66.5C51.5775 66.5 65.55 52.325 65.55 35C65.55 17.675 51.5775 3.5 34.5 3.5Z" fill="white"/>
<path fill-rule="evenodd" clip-rule="evenodd" d="M26.44 41.8515L43.5311 23.0893C44.2662 22.1959 43.3473 21.9725 42.4284 22.6426L21.478 38.7245L12.4731 35.3741C10.4515 34.704 10.4515 32.9172 12.8406 31.8004L48.3092 15.2717C49.9632 14.3783 51.4334 15.7184 50.8821 18.8455L44.8175 53.4663C44.4499 55.9232 43.1635 56.5933 41.5095 55.4765L32.3208 47.2122L27.9102 52.3495C27.3588 53.0195 26.6237 53.0195 26.6237 52.3495L26.44 41.8515Z" fill="#5C2A06"/>
</svg>
