<svg width="69" height="70" viewBox="0 0 69 70" fill="none" xmlns="http://www.w3.org/2000/svg">
<path d="M34.4994 0C15.4766 0 0 15.4855 0 34.5199C0 53.5548 15.4766 69.0398 34.4994 69.0398C53.5228 69.0398 69 53.5548 69 34.5199C68.9994 15.4855 53.5222 0 34.4994 0ZM34.4994 65.6351C17.3526 65.6351 3.4027 51.6771 3.4027 34.5199C3.4027 17.3632 17.3526 3.40466 34.4994 3.40466C51.6462 3.40466 65.5973 17.3632 65.5973 34.5199C65.5967 51.6771 51.6462 65.6351 34.4994 65.6351Z" fill="white"/>
<path d="M49.9065 23.2731C50.6994 22.8635 52.5981 21.6463 53.493 19.0338C53.493 19.0338 51.3362 20.5942 48.4008 20.7781L48.3475 20.8076C46.8458 19.1677 44.6868 18.1389 42.2862 18.1389C37.7447 18.1389 34.0636 21.8228 34.0636 26.3669C34.0636 27.0563 34.1492 27.7259 34.3097 28.366L34.27 28.3064C34.27 28.3064 25.4627 28.8114 17.1595 19.7227C17.1595 19.7227 13.4885 25.9651 19.7739 30.739C18.3975 30.9683 15.9668 29.729 15.9668 29.729C15.9668 29.729 16.1041 36.292 22.618 37.899C21.5632 38.1748 19.5902 38.2656 18.9482 37.9909C18.9482 37.9909 19.9111 42.9935 26.5634 43.8663C24.866 44.8303 21.701 47.7674 14.5439 47.2164C14.5439 47.2164 19.6832 51.4388 29.2249 50.843C38.7667 50.2472 45.694 43.8197 48.4921 37.0269C51.2903 30.234 50.5116 26.3663 50.5116 26.3663C50.5116 26.3663 52.8499 25.1383 54.4571 22.2012C53.7147 22.4237 50.9614 23.0967 49.9366 23.3458C49.9264 23.3219 49.9162 23.2975 49.9065 23.2731Z" fill="#5C2A06"/>
</svg>
